<svg width="20" height="22" viewBox="0 0 20 22" fill="none" xmlns="http://www.w3.org/2000/svg">
<rect x="11" y="15" width="1" height="1" fill="white"/>
<rect x="10" y="15" width="1" height="1" fill="white"/>
<rect x="10" y="14" width="1" height="1" fill="white"/>
<rect x="10" y="13" width="1" height="1" fill="white"/>
<rect x="11" y="13" width="1" height="1" fill="white"/>
<rect x="10" y="5" width="1" height="1" fill="white"/>
<rect x="12" y="13" width="1" height="1" fill="#84062C"/>
<rect x="13" y="13" width="1" height="1" fill="#84062C"/>
<rect x="15" y="15" width="1" height="1" fill="#84062C"/>
<rect x="16" y="15" width="1" height="1" fill="#84062C"/>
<rect x="17" y="15" width="1" height="1" fill="#84062C"/>
<rect x="15" y="14" width="1" height="1" fill="#84062C"/>
<rect x="16" y="14" width="1" height="1" fill="#84062C"/>
<rect x="17" y="14" width="1" height="1" fill="#84062C"/>
<rect x="15" y="13" width="1" height="1" fill="#84062C"/>
<rect x="16" y="13" width="1" height="1" fill="#84062C"/>
<rect x="17" y="13" width="1" height="1" fill="#84062C"/>
<rect x="18" y="13" width="1" height="1" fill="#84062C"/>
<rect x="17" y="12" width="1" height="1" fill="#84062C"/>
<rect x="18" y="12" width="1" height="1" fill="#84062C"/>
<rect x="18" y="11" width="1" height="1" fill="#84062C"/>
<rect x="18" y="10" width="1" height="1" fill="#84062C"/>
<rect x="17" y="10" width="1" height="1" fill="#84062C"/>
<rect x="14" y="12" width="1" height="1" fill="#84062C"/>
<rect x="13" y="12" width="1" height="1" fill="#84062C"/>
<rect x="14" y="11" width="1" height="1" fill="#84062C"/>
<rect x="13" y="11" width="1" height="1" fill="#84062C"/>
<rect x="12" y="11" width="1" height="1" fill="#84062C"/>
<rect x="9" y="11" width="1" height="1" fill="#84062C"/>
<rect x="9" y="9" width="1" height="1" fill="#77121A"/>
<rect x="9" y="8" width="1" height="1" fill="#77121A"/>
<rect x="9" y="7" width="1" height="1" fill="#77121A"/>
<rect x="9" y="6" width="1" height="1" fill="#77121A"/>
<rect x="9" y="5" width="1" height="1" fill="#77121A"/>
<rect x="9" y="4" width="1" height="1" fill="#77121A"/>
<rect x="8" y="8" width="1" height="1" fill="#77121A"/>
<rect x="8" y="7" width="1" height="1" fill="#77121A"/>
<rect x="8" y="6" width="1" height="1" fill="#77121A"/>
<rect x="8" y="5" width="1" height="1" fill="#77121A"/>
<rect x="8" y="11" width="1" height="1" fill="#84062C"/>
<rect x="7" y="11" width="1" height="1" fill="#84062C"/>
<rect x="6" y="11" width="1" height="1" fill="#84062C"/>
<rect x="5" y="11" width="1" height="1" fill="#84062C"/>
<rect x="4" y="11" width="1" height="1" fill="#84062C"/>
<rect x="5" y="12" width="1" height="1" fill="#84062C"/>
<rect x="3" y="13" width="1" height="1" fill="#84062C"/>
<rect x="4" y="13" width="1" height="1" fill="#84062C"/>
<rect x="6" y="13" width="1" height="1" fill="#84062C"/>
<rect x="8" y="13" width="1" height="1" fill="#84062C"/>
<rect x="7" y="13" width="1" height="1" fill="#84062C"/>
<rect x="7" y="10" width="1" height="1" fill="#84062C"/>
<rect x="6" y="10" width="1" height="1" fill="#84062C"/>
<rect x="7" y="4" width="1" height="1" fill="#84062C"/>
<rect x="8" y="3" width="1" height="1" fill="#84062C"/>
<rect x="7" y="2" width="1" height="1" fill="#84062C"/>
<rect x="8" y="2" width="1" height="1" fill="#84062C"/>
<rect x="9" y="2" width="1" height="1" fill="#84062C"/>
<rect x="10" y="2" width="1" height="1" fill="#84062C"/>
<rect x="11" y="2" width="1" height="1" fill="#84062C"/>
<rect x="10" y="1" width="1" height="1" fill="#84062C"/>
<rect x="13" y="2" width="1" height="1" fill="#84062C"/>
<rect x="13" y="3" width="1" height="1" fill="#84062C"/>
<rect x="12" y="3" width="1" height="1" fill="#84062C"/>
<rect x="12" y="4" width="1" height="1" fill="#84062C"/>
<rect x="11" y="4" width="1" height="1" fill="#84062C"/>
<rect x="11" y="9" width="1" height="1" fill="#9A052D"/>
<rect x="11" y="10" width="1" height="1" fill="#9A052D"/>
<rect x="12" y="9" width="1" height="1" fill="#9A052D"/>
<rect x="5" y="10" width="1" height="1" fill="#84062C"/>
<rect x="13" y="14" width="1" height="1" fill="#84062C"/>
<rect x="13" y="15" width="1" height="1" fill="#84062C"/>
<rect x="12" y="17" width="1" height="1" fill="#84062C"/>
<rect x="12" y="19" width="1" height="1" fill="#7C1317"/>
<rect x="12" y="20" width="1" height="1" fill="#7C1317"/>
<rect x="11" y="20" width="1" height="1" fill="#7C1317"/>
<rect x="11" y="19" width="1" height="1" fill="#7C1317"/>
<rect x="10" y="19" width="1" height="1" fill="#7C1317"/>
<rect x="9" y="19" width="1" height="1" fill="#7C1317"/>
<rect x="8" y="19" width="1" height="1" fill="#7C1317"/>
<rect x="7" y="19" width="1" height="1" fill="#7C1317"/>
<rect x="6" y="19" width="1" height="1" fill="#7C1317"/>
<rect x="6" y="20" width="1" height="1" fill="#7C1317"/>
<rect x="7" y="20" width="1" height="1" fill="#7C1317"/>
<rect x="5" y="18" width="1" height="1" fill="#640D1D"/>
<rect x="4" y="18" width="1" height="1" fill="#640D1D"/>
<rect x="4" y="17" width="1" height="1" fill="#640D1D"/>
<rect x="3" y="17" width="1" height="1" fill="#640D1D"/>
<rect x="2" y="17" width="1" height="1" fill="#640D1D"/>
<rect x="2" y="16" width="1" height="1" fill="#640D1D"/>
<rect x="1" y="16" width="1" height="1" fill="#640D1D"/>
<rect x="1" y="14" width="1" height="1" fill="#640D1D"/>
<rect x="1" y="11" width="1" height="1" fill="#640D1D"/>
<rect x="2" y="12" width="1" height="1" fill="#640D1D"/>
<rect x="10" y="7" width="1" height="1" fill="#640D1D"/>
<rect x="10" y="4" width="1" height="1" fill="#640D1D"/>
<rect x="10" y="8" width="1" height="1" fill="#640D1D"/>
<rect x="10" y="9" width="1" height="1" fill="black"/>
<rect x="10" y="10" width="1" height="1" fill="black"/>
<rect x="9" y="10" width="1" height="1" fill="black"/>
<rect x="8" y="10" width="1" height="1" fill="black"/>
<rect x="8" y="9" width="1" height="1" fill="black"/>
<rect x="7" y="9" width="1" height="1" fill="black"/>
<rect x="6" y="9" width="1" height="1" fill="black"/>
<rect x="5" y="9" width="1" height="1" fill="black"/>
<rect x="4" y="10" width="1" height="1" fill="black"/>
<rect x="6" y="8" width="1" height="1" fill="black"/>
<rect x="7" y="8" width="1" height="1" fill="black"/>
<rect x="7" y="7" width="1" height="1" fill="black"/>
<rect x="7" y="6" width="1" height="1" fill="black"/>
<rect x="7" y="5" width="1" height="1" fill="black"/>
<rect x="6" y="5" width="1" height="1" fill="black"/>
<rect x="6" y="4" width="1" height="1" fill="black"/>
<rect x="7" y="3" width="1" height="1" fill="black"/>
<rect x="6" y="2" width="1" height="1" fill="black"/>
<rect x="8" y="4" width="1" height="1" fill="black"/>
<rect x="9" y="3" width="1" height="1" fill="black"/>
<rect x="10" y="3" width="1" height="1" fill="black"/>
<rect x="11" y="3" width="1" height="1" fill="black"/>
<rect x="7" y="1" width="1" height="1" fill="black"/>
<rect x="8" y="1" width="1" height="1" fill="black"/>
<rect x="9" y="1" width="1" height="1" fill="black"/>
<rect x="9" width="1" height="1" fill="black"/>
<rect x="10" width="1" height="1" fill="black"/>
<rect x="11" y="1" width="1" height="1" fill="black"/>
<rect x="12" y="1" width="1" height="1" fill="black"/>
<rect x="13" y="1" width="1" height="1" fill="black"/>
<rect x="12" y="2" width="1" height="1" fill="black"/>
<rect x="14" y="2" width="1" height="1" fill="black"/>
<rect x="14" y="3" width="1" height="1" fill="black"/>
<rect x="13" y="4" width="1" height="1" fill="black"/>
<rect x="13" y="5" width="1" height="1" fill="black"/>
<rect x="12" y="5" width="1" height="1" fill="black"/>
<rect x="11" y="5" width="1" height="1" fill="black"/>
<rect x="11" y="6" width="1" height="1" fill="black"/>
<rect x="10" y="11" width="1" height="1" fill="black"/>
<rect x="11" y="11" width="1" height="1" fill="black"/>
<rect x="12" y="10" width="1" height="1" fill="black"/>
<rect x="13" y="10" width="1" height="1" fill="black"/>
<rect x="14" y="10" width="1" height="1" fill="black"/>
<rect x="15" y="11" width="1" height="1" fill="black"/>
<rect x="15" y="12" width="1" height="1" fill="black"/>
<rect x="14" y="13" width="1" height="1" fill="black"/>
<rect x="14" y="14" width="1" height="1" fill="black"/>
<rect x="14" y="15" width="1" height="1" fill="black"/>
<rect x="18" y="15" width="1" height="1" fill="black"/>
<rect x="18" y="14" width="1" height="1" fill="black"/>
<rect x="19" y="13" width="1" height="1" fill="black"/>
<rect x="19" y="12" width="1" height="1" fill="black"/>
<rect x="19" y="11" width="1" height="1" fill="black"/>
<rect x="19" y="10" width="1" height="1" fill="black"/>
<rect x="18" y="9" width="1" height="1" fill="black"/>
<rect x="17" y="9" width="1" height="1" fill="black"/>
<rect x="16" y="10" width="1" height="1" fill="black"/>
<rect x="16" y="11" width="1" height="1" fill="black"/>
<rect x="16" y="12" width="1" height="1" fill="black"/>
<rect x="17" y="11" width="1" height="1" fill="black"/>
<rect x="13" y="9" width="1" height="1" fill="black"/>
<rect x="14" y="8" width="1" height="1" fill="black"/>
<rect x="13" y="8" width="1" height="1" fill="black"/>
<rect x="12" y="8" width="1" height="1" fill="black"/>
<rect x="11" y="8" width="1" height="1" fill="black"/>
<rect x="14" y="6" width="1" height="1" fill="black"/>
<rect x="14" y="7" width="1" height="1" fill="#FDC726"/>
<rect x="13" y="7" width="1" height="1" fill="#FDC726"/>
<rect x="12" y="7" width="1" height="1" fill="#FDC726"/>
<rect x="11" y="7" width="1" height="1" fill="#FDC726"/>
<rect x="13" y="6" width="1" height="1" fill="#FDC726"/>
<rect x="12" y="6" width="1" height="1" fill="#FDC726"/>
<rect x="10" y="6" width="1" height="1" fill="#FDC726"/>
<rect x="11" y="17" width="1" height="1" fill="#84062C"/>
<rect x="10" y="17" width="1" height="1" fill="#84062C"/>
<rect x="9" y="17" width="1" height="1" fill="#84062C"/>
<rect x="8" y="17" width="1" height="1" fill="#84062C"/>
<rect x="7" y="17" width="1" height="1" fill="#84062C"/>
<rect x="11" y="14" width="1" height="1" fill="#84062C"/>
<rect x="12" y="14" width="1" height="1" fill="#84062C"/>
<rect x="12" y="15" width="1" height="1" fill="#84062C"/>
<rect x="12" y="16" width="1" height="1" fill="#84062C"/>
<rect x="11" y="16" width="1" height="1" fill="#84062C"/>
<rect x="10" y="16" width="1" height="1" fill="#84062C"/>
<rect x="9" y="16" width="1" height="1" fill="#84062C"/>
<rect x="8" y="16" width="1" height="1" fill="#84062C"/>
<rect x="7" y="16" width="1" height="1" fill="#84062C"/>
<rect x="9" y="15" width="1" height="1" fill="#84062C"/>
<rect x="9" y="14" width="1" height="1" fill="#84062C"/>
<rect x="8" y="14" width="1" height="1" fill="#84062C"/>
<rect x="7" y="14" width="1" height="1" fill="#84062C"/>
<rect x="6" y="14" width="1" height="1" fill="#84062C"/>
<rect x="5" y="14" width="1" height="1" fill="#84062C"/>
<rect x="4" y="14" width="1" height="1" fill="#84062C"/>
<rect x="3" y="14" width="1" height="1" fill="#84062C"/>
<rect x="6" y="15" width="1" height="1" fill="#84062C"/>
<rect x="5" y="15" width="1" height="1" fill="#84062C"/>
<rect x="4" y="15" width="1" height="1" fill="#84062C"/>
<rect x="3" y="15" width="1" height="1" fill="#84062C"/>
<rect x="2" y="15" width="1" height="1" fill="black"/>
<rect x="1" y="15" width="1" height="1" fill="black"/>
<rect y="15" width="1" height="1" fill="black"/>
<rect y="14" width="1" height="1" fill="black"/>
<rect x="1" y="13" width="1" height="1" fill="black"/>
<rect x="2" y="14" width="1" height="1" fill="black"/>
<rect x="2" y="13" width="1" height="1" fill="black"/>
<rect x="1" y="12" width="1" height="1" fill="black"/>
<rect y="11" width="1" height="1" fill="black"/>
<rect x="2" y="11" width="1" height="1" fill="black"/>
<rect x="3" y="11" width="1" height="1" fill="black"/>
<rect x="3" y="12" width="1" height="1" fill="black"/>
<rect x="4" y="12" width="1" height="1" fill="black"/>
<rect x="5" y="13" width="1" height="1" fill="black"/>
<rect x="6" y="12" width="1" height="1" fill="black"/>
<rect x="7" y="12" width="1" height="1" fill="black"/>
<rect x="8" y="12" width="1" height="1" fill="black"/>
<rect x="7" y="15" width="1" height="1" fill="black"/>
<rect x="8" y="15" width="1" height="1" fill="black"/>
<rect x="3" y="16" width="1" height="1" fill="black"/>
<rect x="4" y="16" width="1" height="1" fill="black"/>
<rect x="5" y="16" width="1" height="1" fill="black"/>
<rect x="6" y="16" width="1" height="1" fill="black"/>
<rect x="13" y="16" width="1" height="1" fill="black"/>
<rect x="15" y="16" width="1" height="1" fill="black"/>
<rect x="17" y="16" width="1" height="1" fill="black"/>
<rect x="16" y="16" width="1" height="1" fill="black"/>
<rect x="13" y="17" width="1" height="1" fill="black"/>
<rect x="6" y="17" width="1" height="1" fill="black"/>
<rect x="5" y="17" width="1" height="1" fill="black"/>
<rect x="1" y="17" width="1" height="1" fill="black"/>
<rect y="17" width="1" height="1" fill="black"/>
<rect y="18" width="1" height="1" fill="black"/>
<rect x="2" y="18" width="1" height="1" fill="black"/>
<rect x="3" y="18" width="1" height="1" fill="black"/>
<rect x="6" y="18" width="1" height="1" fill="black"/>
<rect x="7" y="18" width="1" height="1" fill="black"/>
<rect x="8" y="18" width="1" height="1" fill="black"/>
<rect x="9" y="18" width="1" height="1" fill="black"/>
<rect x="10" y="18" width="1" height="1" fill="black"/>
<rect x="11" y="18" width="1" height="1" fill="black"/>
<rect x="12" y="18" width="1" height="1" fill="black"/>
<rect x="13" y="18" width="1" height="1" fill="black"/>
<rect x="13" y="19" width="1" height="1" fill="black"/>
<rect x="13" y="20" width="1" height="1" fill="black"/>
<rect x="12" y="21" width="1" height="1" fill="black"/>
<rect x="11" y="21" width="1" height="1" fill="black"/>
<rect x="10" y="20" width="1" height="1" fill="black"/>
<rect x="9" y="20" width="1" height="1" fill="black"/>
<rect x="8" y="20" width="1" height="1" fill="black"/>
<rect x="7" y="21" width="1" height="1" fill="black"/>
<rect x="6" y="21" width="1" height="1" fill="black"/>
<rect x="5" y="21" width="1" height="1" fill="black"/>
<rect x="5" y="20" width="1" height="1" fill="black"/>
<rect x="5" y="19" width="1" height="1" fill="black"/>
<rect x="4" y="19" width="1" height="1" fill="black"/>
<rect x="9" y="13" width="1" height="1" fill="#84062C"/>
<rect x="9" y="12" width="1" height="1" fill="#84062C"/>
<rect x="10" y="12" width="1" height="1" fill="#84062C"/>
<rect x="11" y="12" width="1" height="1" fill="#84062C"/>
<rect x="12" y="12" width="1" height="1" fill="#84062C"/>
</svg>
