<svg width="180" height="180" viewBox="0 0 36 36" xmlns="http://www.w3.org/2000/svg">
  <!-- 36x36 medium detail Cocky pixel art -->

  <!-- Head comb/feathers (dark garnet with highlights) -->
  <rect x="15" y="3" width="1" height="1" fill="#4A0008"/>
  <rect x="17" y="2" width="1" height="1" fill="#4A0008"/>
  <rect x="18" y="2" width="1" height="1" fill="#5A0008"/>
  <rect x="19" y="3" width="1" height="1" fill="#4A0008"/>
  <rect x="14" y="4" width="1" height="1" fill="#4A0008"/>
  <rect x="15" y="4" width="1" height="1" fill="#73000A"/>
  <rect x="16" y="3" width="1" height="1" fill="#73000A"/>
  <rect x="16" y="4" width="1" height="1" fill="#8B0A1A"/>
  <rect x="17" y="3" width="1" height="1" fill="#8B0A1A"/>
  <rect x="17" y="4" width="1" height="1" fill="#73000A"/>
  <rect x="18" y="3" width="1" height="1" fill="#73000A"/>
  <rect x="18" y="4" width="1" height="1" fill="#8B0A1A"/>
  <rect x="19" y="4" width="1" height="1" fill="#73000A"/>
  <rect x="20" y="4" width="1" height="1" fill="#4A0008"/>

  <!-- Head feathers row 2 -->
  <rect x="14" y="5" width="1" height="1" fill="#4A0008"/>
  <rect x="15" y="5" width="1" height="1" fill="#73000A"/>
  <rect x="16" y="5" width="1" height="1" fill="#8B0A1A"/>
  <rect x="17" y="5" width="1" height="1" fill="#73000A"/>
  <rect x="18" y="5" width="1" height="1" fill="#8B0A1A"/>
  <rect x="19" y="5" width="1" height="1" fill="#73000A"/>
  <rect x="20" y="5" width="1" height="1" fill="#4A0008"/>

  <!-- Head (garnet with black outline) -->
  <rect x="13" y="6" width="1" height="1" fill="#4A0008"/>
  <rect x="14" y="6" width="1" height="1" fill="#73000A"/>
  <rect x="15" y="6" width="1" height="1" fill="#8B0A1A"/>
  <rect x="16" y="6" width="1" height="1" fill="#73000A"/>
  <rect x="17" y="6" width="1" height="1" fill="#8B0A1A"/>
  <rect x="18" y="6" width="1" height="1" fill="#73000A"/>
  <rect x="19" y="6" width="1" height="1" fill="#73000A"/>
  <rect x="20" y="6" width="1" height="1" fill="#4A0008"/>

  <!-- Face row with eye -->
  <rect x="13" y="7" width="1" height="1" fill="#4A0008"/>
  <rect x="14" y="7" width="1" height="1" fill="#73000A"/>
  <rect x="15" y="7" width="1" height="1" fill="#FFFFFF"/>
  <rect x="16" y="7" width="1" height="1" fill="#EEEEEE"/>
  <rect x="17" y="7" width="1" height="1" fill="#000000"/>
  <rect x="18" y="7" width="1" height="1" fill="#73000A"/>
  <rect x="19" y="7" width="1" height="1" fill="#8B0A1A"/>
  <rect x="20" y="7" width="1" height="1" fill="#4A0008"/>

  <!-- Beak (gold/yellow) -->
  <rect x="21" y="7" width="1" height="1" fill="#E6A800"/>
  <rect x="22" y="7" width="1" height="1" fill="#FFD700"/>
  <rect x="23" y="7" width="1" height="1" fill="#CC9400"/>
  <rect x="20" y="8" width="1" height="1" fill="#E6A800"/>
  <rect x="21" y="8" width="1" height="1" fill="#FFD700"/>
  <rect x="22" y="8" width="1" height="1" fill="#CC9400"/>

  <!-- Lower head -->
  <rect x="13" y="8" width="1" height="1" fill="#4A0008"/>
  <rect x="14" y="8" width="1" height="1" fill="#73000A"/>
  <rect x="15" y="8" width="1" height="1" fill="#8B0A1A"/>
  <rect x="16" y="8" width="1" height="1" fill="#73000A"/>
  <rect x="17" y="8" width="1" height="1" fill="#73000A"/>
  <rect x="18" y="8" width="1" height="1" fill="#8B0A1A"/>
  <rect x="19" y="8" width="1" height="1" fill="#73000A"/>

  <!-- Neck -->
  <rect x="14" y="9" width="1" height="1" fill="#4A0008"/>
  <rect x="15" y="9" width="1" height="1" fill="#73000A"/>
  <rect x="16" y="9" width="1" height="1" fill="#8B0A1A"/>
  <rect x="17" y="9" width="1" height="1" fill="#73000A"/>
  <rect x="18" y="9" width="1" height="1" fill="#73000A"/>
  <rect x="19" y="9" width="1" height="1" fill="#4A0008"/>

  <!-- Raised arm/wing (right side) -->
  <rect x="22" y="8" width="1" height="1" fill="#4A0008"/>
  <rect x="23" y="8" width="1" height="1" fill="#73000A"/>
  <rect x="24" y="8" width="1" height="1" fill="#4A0008"/>
  <rect x="22" y="9" width="1" height="1" fill="#73000A"/>
  <rect x="23" y="9" width="1" height="1" fill="#8B0A1A"/>
  <rect x="24" y="9" width="1" height="1" fill="#73000A"/>
  <rect x="25" y="9" width="1" height="1" fill="#000000"/>
  <rect x="22" y="10" width="1" height="1" fill="#73000A"/>
  <rect x="23" y="10" width="1" height="1" fill="#73000A"/>
  <rect x="24" y="10" width="1" height="1" fill="#4A0008"/>

  <!-- Body/Jersey row 1 -->
  <rect x="9" y="10" width="1" height="1" fill="#4A0008"/>
  <rect x="10" y="10" width="1" height="1" fill="#73000A"/>
  <rect x="11" y="10" width="1" height="1" fill="#8B0A1A"/>
  <rect x="12" y="10" width="1" height="1" fill="#73000A"/>
  <rect x="13" y="10" width="1" height="1" fill="#73000A"/>
  <rect x="14" y="10" width="1" height="1" fill="#8B0A1A"/>
  <rect x="15" y="10" width="1" height="1" fill="#73000A"/>
  <rect x="16" y="10" width="1" height="1" fill="#73000A"/>
  <rect x="17" y="10" width="1" height="1" fill="#8B0A1A"/>
  <rect x="18" y="10" width="1" height="1" fill="#73000A"/>
  <rect x="19" y="10" width="1" height="1" fill="#73000A"/>
  <rect x="20" y="10" width="1" height="1" fill="#4A0008"/>
  <rect x="21" y="10" width="1" height="1" fill="#73000A"/>

  <!-- Body row 2 -->
  <rect x="8" y="11" width="1" height="1" fill="#4A0008"/>
  <rect x="9" y="11" width="1" height="1" fill="#73000A"/>
  <rect x="10" y="11" width="1" height="1" fill="#8B0A1A"/>
  <rect x="11" y="11" width="1" height="1" fill="#73000A"/>
  <rect x="12" y="11" width="1" height="1" fill="#73000A"/>
  <rect x="13" y="11" width="1" height="1" fill="#8B0A1A"/>
  <rect x="14" y="11" width="1" height="1" fill="#73000A"/>
  <rect x="15" y="11" width="1" height="1" fill="#73000A"/>
  <rect x="16" y="11" width="1" height="1" fill="#8B0A1A"/>
  <rect x="17" y="11" width="1" height="1" fill="#73000A"/>
  <rect x="18" y="11" width="1" height="1" fill="#73000A"/>
  <rect x="19" y="11" width="1" height="1" fill="#8B0A1A"/>
  <rect x="20" y="11" width="1" height="1" fill="#4A0008"/>

  <!-- Left wing -->
  <rect x="6" y="11" width="1" height="1" fill="#4A0008"/>
  <rect x="7" y="11" width="1" height="1" fill="#73000A"/>
  <rect x="6" y="12" width="1" height="1" fill="#73000A"/>
  <rect x="7" y="12" width="1" height="1" fill="#8B0A1A"/>
  <rect x="5" y="13" width="1" height="1" fill="#4A0008"/>
  <rect x="6" y="13" width="1" height="1" fill="#73000A"/>
  <rect x="7" y="13" width="1" height="1" fill="#73000A"/>
  <rect x="5" y="14" width="1" height="1" fill="#000000"/>
  <rect x="6" y="14" width="1" height="1" fill="#4A0008"/>
  <rect x="7" y="14" width="1" height="1" fill="#73000A"/>

  <!-- Body with C letter -->
  <rect x="8" y="12" width="1" height="1" fill="#4A0008"/>
  <rect x="9" y="12" width="1" height="1" fill="#73000A"/>
  <rect x="10" y="12" width="1" height="1" fill="#73000A"/>
  <rect x="11" y="12" width="1" height="1" fill="#73000A"/>
  <rect x="12" y="12" width="1" height="1" fill="#FFFFFF"/>
  <rect x="13" y="12" width="1" height="1" fill="#FFFFFF"/>
  <rect x="14" y="12" width="1" height="1" fill="#FFFFFF"/>
  <rect x="15" y="12" width="1" height="1" fill="#73000A"/>
  <rect x="16" y="12" width="1" height="1" fill="#73000A"/>
  <rect x="17" y="12" width="1" height="1" fill="#8B0A1A"/>
  <rect x="18" y="12" width="1" height="1" fill="#73000A"/>
  <rect x="19" y="12" width="1" height="1" fill="#4A0008"/>

  <rect x="8" y="13" width="1" height="1" fill="#4A0008"/>
  <rect x="9" y="13" width="1" height="1" fill="#73000A"/>
  <rect x="10" y="13" width="1" height="1" fill="#8B0A1A"/>
  <rect x="11" y="13" width="1" height="1" fill="#FFFFFF"/>
  <rect x="12" y="13" width="1" height="1" fill="#73000A"/>
  <rect x="13" y="13" width="1" height="1" fill="#73000A"/>
  <rect x="14" y="13" width="1" height="1" fill="#73000A"/>
  <rect x="15" y="13" width="1" height="1" fill="#8B0A1A"/>
  <rect x="16" y="13" width="1" height="1" fill="#73000A"/>
  <rect x="17" y="13" width="1" height="1" fill="#73000A"/>
  <rect x="18" y="13" width="1" height="1" fill="#8B0A1A"/>
  <rect x="19" y="13" width="1" height="1" fill="#4A0008"/>

  <rect x="8" y="14" width="1" height="1" fill="#4A0008"/>
  <rect x="9" y="14" width="1" height="1" fill="#73000A"/>
  <rect x="10" y="14" width="1" height="1" fill="#73000A"/>
  <rect x="11" y="14" width="1" height="1" fill="#FFFFFF"/>
  <rect x="12" y="14" width="1" height="1" fill="#73000A"/>
  <rect x="13" y="14" width="1" height="1" fill="#8B0A1A"/>
  <rect x="14" y="14" width="1" height="1" fill="#73000A"/>
  <rect x="15" y="14" width="1" height="1" fill="#73000A"/>
  <rect x="16" y="14" width="1" height="1" fill="#8B0A1A"/>
  <rect x="17" y="14" width="1" height="1" fill="#73000A"/>
  <rect x="18" y="14" width="1" height="1" fill="#73000A"/>
  <rect x="19" y="14" width="1" height="1" fill="#4A0008"/>

  <rect x="8" y="15" width="1" height="1" fill="#4A0008"/>
  <rect x="9" y="15" width="1" height="1" fill="#73000A"/>
  <rect x="10" y="15" width="1" height="1" fill="#8B0A1A"/>
  <rect x="11" y="15" width="1" height="1" fill="#FFFFFF"/>
  <rect x="12" y="15" width="1" height="1" fill="#73000A"/>
  <rect x="13" y="15" width="1" height="1" fill="#73000A"/>
  <rect x="14" y="15" width="1" height="1" fill="#8B0A1A"/>
  <rect x="15" y="15" width="1" height="1" fill="#73000A"/>
  <rect x="16" y="15" width="1" height="1" fill="#73000A"/>
  <rect x="17" y="15" width="1" height="1" fill="#8B0A1A"/>
  <rect x="18" y="15" width="1" height="1" fill="#4A0008"/>

  <rect x="9" y="16" width="1" height="1" fill="#4A0008"/>
  <rect x="10" y="16" width="1" height="1" fill="#73000A"/>
  <rect x="11" y="16" width="1" height="1" fill="#73000A"/>
  <rect x="12" y="16" width="1" height="1" fill="#FFFFFF"/>
  <rect x="13" y="16" width="1" height="1" fill="#FFFFFF"/>
  <rect x="14" y="16" width="1" height="1" fill="#FFFFFF"/>
  <rect x="15" y="16" width="1" height="1" fill="#73000A"/>
  <rect x="16" y="16" width="1" height="1" fill="#73000A"/>
  <rect x="17" y="16" width="1" height="1" fill="#4A0008"/>

  <!-- Lower body -->
  <rect x="10" y="17" width="1" height="1" fill="#4A0008"/>
  <rect x="11" y="17" width="1" height="1" fill="#73000A"/>
  <rect x="12" y="17" width="1" height="1" fill="#73000A"/>
  <rect x="13" y="17" width="1" height="1" fill="#8B0A1A"/>
  <rect x="14" y="17" width="1" height="1" fill="#73000A"/>
  <rect x="15" y="17" width="1" height="1" fill="#73000A"/>
  <rect x="16" y="17" width="1" height="1" fill="#4A0008"/>

  <!-- Legs -->
  <rect x="11" y="18" width="1" height="1" fill="#73000A"/>
  <rect x="12" y="18" width="1" height="1" fill="#8B0A1A"/>
  <rect x="14" y="18" width="1" height="1" fill="#73000A"/>
  <rect x="15" y="18" width="1" height="1" fill="#8B0A1A"/>

  <!-- Feet (black) -->
  <rect x="10" y="19" width="1" height="1" fill="#000000"/>
  <rect x="11" y="19" width="1" height="1" fill="#000000"/>
  <rect x="12" y="19" width="1" height="1" fill="#000000"/>
  <rect x="13" y="19" width="1" height="1" fill="#000000"/>
  <rect x="14" y="19" width="1" height="1" fill="#000000"/>
  <rect x="15" y="19" width="1" height="1" fill="#000000"/>
  <rect x="16" y="19" width="1" height="1" fill="#000000"/>
</svg>