<svg width="32" height="32" viewBox="0 0 32 32" xmlns="http://www.w3.org/2000/svg">
  <!-- 32x32 simplified Cocky pixel art -->

  <!-- Head comb/feathers (dark garnet) -->
  <rect x="14" y="4" width="1" height="1" fill="#4A0008"/>
  <rect x="16" y="3" width="1" height="1" fill="#4A0008"/>
  <rect x="17" y="4" width="1" height="1" fill="#4A0008"/>
  <rect x="13" y="5" width="1" height="1" fill="#4A0008"/>
  <rect x="14" y="5" width="1" height="1" fill="#73000A"/>
  <rect x="15" y="4" width="1" height="1" fill="#73000A"/>
  <rect x="15" y="5" width="1" height="1" fill="#73000A"/>
  <rect x="16" y="4" width="1" height="1" fill="#73000A"/>
  <rect x="16" y="5" width="1" height="1" fill="#73000A"/>
  <rect x="17" y="5" width="1" height="1" fill="#73000A"/>
  <rect x="18" y="5" width="1" height="1" fill="#4A0008"/>

  <!-- Head (garnet with black outline) -->
  <rect x="12" y="6" width="1" height="1" fill="#4A0008"/>
  <rect x="13" y="6" width="1" height="1" fill="#73000A"/>
  <rect x="14" y="6" width="1" height="1" fill="#73000A"/>
  <rect x="15" y="6" width="1" height="1" fill="#73000A"/>
  <rect x="16" y="6" width="1" height="1" fill="#73000A"/>
  <rect x="17" y="6" width="1" height="1" fill="#73000A"/>
  <rect x="18" y="6" width="1" height="1" fill="#4A0008"/>

  <!-- Face row with eye -->
  <rect x="12" y="7" width="1" height="1" fill="#4A0008"/>
  <rect x="13" y="7" width="1" height="1" fill="#73000A"/>
  <rect x="14" y="7" width="1" height="1" fill="#FFFFFF"/>
  <rect x="15" y="7" width="1" height="1" fill="#000000"/>
  <rect x="16" y="7" width="1" height="1" fill="#73000A"/>
  <rect x="17" y="7" width="1" height="1" fill="#73000A"/>
  <rect x="18" y="7" width="1" height="1" fill="#4A0008"/>

  <!-- Beak -->
  <rect x="19" y="7" width="1" height="1" fill="#E6A800"/>
  <rect x="20" y="7" width="1" height="1" fill="#E6A800"/>
  <rect x="18" y="8" width="1" height="1" fill="#E6A800"/>
  <rect x="19" y="8" width="1" height="1" fill="#CC9400"/>

  <!-- Lower head -->
  <rect x="12" y="8" width="1" height="1" fill="#4A0008"/>
  <rect x="13" y="8" width="1" height="1" fill="#73000A"/>
  <rect x="14" y="8" width="1" height="1" fill="#73000A"/>
  <rect x="15" y="8" width="1" height="1" fill="#73000A"/>
  <rect x="16" y="8" width="1" height="1" fill="#73000A"/>
  <rect x="17" y="8" width="1" height="1" fill="#73000A"/>

  <!-- Neck/wattle -->
  <rect x="14" y="9" width="1" height="1" fill="#73000A"/>
  <rect x="15" y="9" width="1" height="1" fill="#73000A"/>
  <rect x="16" y="9" width="1" height="1" fill="#73000A"/>
  <rect x="17" y="9" width="1" height="1" fill="#8B0A1A"/>

  <!-- Body/Jersey (garnet) - with raised arm on right -->
  <rect x="9" y="10" width="1" height="1" fill="#4A0008"/>
  <rect x="10" y="10" width="1" height="1" fill="#73000A"/>
  <rect x="11" y="10" width="1" height="1" fill="#73000A"/>
  <rect x="12" y="10" width="1" height="1" fill="#73000A"/>
  <rect x="13" y="10" width="1" height="1" fill="#73000A"/>
  <rect x="14" y="10" width="1" height="1" fill="#73000A"/>
  <rect x="15" y="10" width="1" height="1" fill="#73000A"/>
  <rect x="16" y="10" width="1" height="1" fill="#73000A"/>
  <rect x="17" y="10" width="1" height="1" fill="#73000A"/>
  <rect x="18" y="10" width="1" height="1" fill="#4A0008"/>
  <rect x="19" y="10" width="1" height="1" fill="#4A0008"/>

  <!-- Wing/arm raised -->
  <rect x="20" y="9" width="1" height="1" fill="#4A0008"/>
  <rect x="21" y="9" width="1" height="1" fill="#73000A"/>
  <rect x="22" y="9" width="1" height="1" fill="#4A0008"/>
  <rect x="20" y="10" width="1" height="1" fill="#73000A"/>
  <rect x="21" y="10" width="1" height="1" fill="#73000A"/>
  <rect x="22" y="10" width="1" height="1" fill="#000000"/>

  <!-- Body row 2 -->
  <rect x="8" y="11" width="1" height="1" fill="#4A0008"/>
  <rect x="9" y="11" width="1" height="1" fill="#73000A"/>
  <rect x="10" y="11" width="1" height="1" fill="#73000A"/>
  <rect x="11" y="11" width="1" height="1" fill="#73000A"/>
  <rect x="12" y="11" width="1" height="1" fill="#73000A"/>
  <rect x="13" y="11" width="1" height="1" fill="#73000A"/>
  <rect x="14" y="11" width="1" height="1" fill="#73000A"/>
  <rect x="15" y="11" width="1" height="1" fill="#73000A"/>
  <rect x="16" y="11" width="1" height="1" fill="#73000A"/>
  <rect x="17" y="11" width="1" height="1" fill="#73000A"/>
  <rect x="18" y="11" width="1" height="1" fill="#73000A"/>
  <rect x="19" y="11" width="1" height="1" fill="#4A0008"/>

  <!-- Body with C letter -->
  <rect x="8" y="12" width="1" height="1" fill="#4A0008"/>
  <rect x="9" y="12" width="1" height="1" fill="#73000A"/>
  <rect x="10" y="12" width="1" height="1" fill="#73000A"/>
  <rect x="11" y="12" width="1" height="1" fill="#73000A"/>
  <rect x="12" y="12" width="1" height="1" fill="#FFFFFF"/>
  <rect x="13" y="12" width="1" height="1" fill="#FFFFFF"/>
  <rect x="14" y="12" width="1" height="1" fill="#73000A"/>
  <rect x="15" y="12" width="1" height="1" fill="#73000A"/>
  <rect x="16" y="12" width="1" height="1" fill="#73000A"/>
  <rect x="17" y="12" width="1" height="1" fill="#73000A"/>
  <rect x="18" y="12" width="1" height="1" fill="#4A0008"/>

  <rect x="8" y="13" width="1" height="1" fill="#4A0008"/>
  <rect x="9" y="13" width="1" height="1" fill="#73000A"/>
  <rect x="10" y="13" width="1" height="1" fill="#73000A"/>
  <rect x="11" y="13" width="1" height="1" fill="#FFFFFF"/>
  <rect x="12" y="13" width="1" height="1" fill="#73000A"/>
  <rect x="13" y="13" width="1" height="1" fill="#73000A"/>
  <rect x="14" y="13" width="1" height="1" fill="#73000A"/>
  <rect x="15" y="13" width="1" height="1" fill="#73000A"/>
  <rect x="16" y="13" width="1" height="1" fill="#73000A"/>
  <rect x="17" y="13" width="1" height="1" fill="#73000A"/>
  <rect x="18" y="13" width="1" height="1" fill="#4A0008"/>

  <rect x="8" y="14" width="1" height="1" fill="#4A0008"/>
  <rect x="9" y="14" width="1" height="1" fill="#73000A"/>
  <rect x="10" y="14" width="1" height="1" fill="#73000A"/>
  <rect x="11" y="14" width="1" height="1" fill="#FFFFFF"/>
  <rect x="12" y="14" width="1" height="1" fill="#73000A"/>
  <rect x="13" y="14" width="1" height="1" fill="#73000A"/>
  <rect x="14" y="14" width="1" height="1" fill="#73000A"/>
  <rect x="15" y="14" width="1" height="1" fill="#73000A"/>
  <rect x="16" y="14" width="1" height="1" fill="#73000A"/>
  <rect x="17" y="14" width="1" height="1" fill="#73000A"/>
  <rect x="18" y="14" width="1" height="1" fill="#4A0008"/>

  <rect x="9" y="15" width="1" height="1" fill="#4A0008"/>
  <rect x="10" y="15" width="1" height="1" fill="#73000A"/>
  <rect x="11" y="15" width="1" height="1" fill="#73000A"/>
  <rect x="12" y="15" width="1" height="1" fill="#FFFFFF"/>
  <rect x="13" y="15" width="1" height="1" fill="#FFFFFF"/>
  <rect x="14" y="15" width="1" height="1" fill="#73000A"/>
  <rect x="15" y="15" width="1" height="1" fill="#73000A"/>
  <rect x="16" y="15" width="1" height="1" fill="#73000A"/>
  <rect x="17" y="15" width="1" height="1" fill="#4A0008"/>

  <!-- Left wing -->
  <rect x="6" y="11" width="1" height="1" fill="#4A0008"/>
  <rect x="7" y="11" width="1" height="1" fill="#73000A"/>
  <rect x="6" y="12" width="1" height="1" fill="#73000A"/>
  <rect x="7" y="12" width="1" height="1" fill="#73000A"/>
  <rect x="6" y="13" width="1" height="1" fill="#73000A"/>
  <rect x="7" y="13" width="1" height="1" fill="#73000A"/>
  <rect x="5" y="13" width="1" height="1" fill="#000000"/>
  <rect x="6" y="14" width="1" height="1" fill="#4A0008"/>
  <rect x="7" y="14" width="1" height="1" fill="#73000A"/>

  <!-- Legs/feet -->
  <rect x="11" y="16" width="1" height="1" fill="#73000A"/>
  <rect x="12" y="16" width="1" height="1" fill="#73000A"/>
  <rect x="14" y="16" width="1" height="1" fill="#73000A"/>
  <rect x="15" y="16" width="1" height="1" fill="#73000A"/>

  <rect x="10" y="17" width="1" height="1" fill="#000000"/>
  <rect x="11" y="17" width="1" height="1" fill="#000000"/>
  <rect x="12" y="17" width="1" height="1" fill="#000000"/>
  <rect x="14" y="17" width="1" height="1" fill="#000000"/>
  <rect x="15" y="17" width="1" height="1" fill="#000000"/>
  <rect x="16" y="17" width="1" height="1" fill="#000000"/>
</svg>