<svg width="512" height="512" viewBox="0 0 64 64" xmlns="http://www.w3.org/2000/svg">
  <!-- 64x64 high detail Cocky pixel art -->

  <!-- Head comb/feathers - detailed spiky comb -->
  <rect x="28" y="6" width="1" height="1" fill="#3A0006"/>
  <rect x="29" y="5" width="1" height="1" fill="#4A0008"/>
  <rect x="29" y="6" width="1" height="1" fill="#5A0008"/>
  <rect x="30" y="4" width="1" height="1" fill="#4A0008"/>
  <rect x="30" y="5" width="1" height="1" fill="#73000A"/>
  <rect x="30" y="6" width="1" height="1" fill="#8B0A1A"/>
  <rect x="31" y="5" width="1" height="1" fill="#8B0A1A"/>
  <rect x="31" y="6" width="1" height="1" fill="#73000A"/>
  <rect x="32" y="3" width="1" height="1" fill="#3A0006"/>
  <rect x="32" y="4" width="1" height="1" fill="#4A0008"/>
  <rect x="32" y="5" width="1" height="1" fill="#73000A"/>
  <rect x="32" y="6" width="1" height="1" fill="#8B0A1A"/>
  <rect x="33" y="4" width="1" height="1" fill="#5A0008"/>
  <rect x="33" y="5" width="1" height="1" fill="#8B0A1A"/>
  <rect x="33" y="6" width="1" height="1" fill="#73000A"/>
  <rect x="34" y="3" width="1" height="1" fill="#3A0006"/>
  <rect x="34" y="4" width="1" height="1" fill="#4A0008"/>
  <rect x="34" y="5" width="1" height="1" fill="#73000A"/>
  <rect x="34" y="6" width="1" height="1" fill="#8B0A1A"/>
  <rect x="35" y="4" width="1" height="1" fill="#5A0008"/>
  <rect x="35" y="5" width="1" height="1" fill="#8B0A1A"/>
  <rect x="35" y="6" width="1" height="1" fill="#73000A"/>
  <rect x="36" y="5" width="1" height="1" fill="#4A0008"/>
  <rect x="36" y="6" width="1" height="1" fill="#5A0008"/>
  <rect x="37" y="6" width="1" height="1" fill="#4A0008"/>

  <!-- Head comb row 2 -->
  <rect x="27" y="7" width="1" height="1" fill="#3A0006"/>
  <rect x="28" y="7" width="1" height="1" fill="#4A0008"/>
  <rect x="29" y="7" width="1" height="1" fill="#73000A"/>
  <rect x="30" y="7" width="1" height="1" fill="#8B0A1A"/>
  <rect x="31" y="7" width="1" height="1" fill="#73000A"/>
  <rect x="32" y="7" width="1" height="1" fill="#8B0A1A"/>
  <rect x="33" y="7" width="1" height="1" fill="#73000A"/>
  <rect x="34" y="7" width="1" height="1" fill="#8B0A1A"/>
  <rect x="35" y="7" width="1" height="1" fill="#73000A"/>
  <rect x="36" y="7" width="1" height="1" fill="#4A0008"/>
  <rect x="37" y="7" width="1" height="1" fill="#3A0006"/>

  <!-- Head row 3 -->
  <rect x="26" y="8" width="1" height="1" fill="#3A0006"/>
  <rect x="27" y="8" width="1" height="1" fill="#4A0008"/>
  <rect x="28" y="8" width="1" height="1" fill="#73000A"/>
  <rect x="29" y="8" width="1" height="1" fill="#8B0A1A"/>
  <rect x="30" y="8" width="1" height="1" fill="#73000A"/>
  <rect x="31" y="8" width="1" height="1" fill="#8B0A1A"/>
  <rect x="32" y="8" width="1" height="1" fill="#73000A"/>
  <rect x="33" y="8" width="1" height="1" fill="#8B0A1A"/>
  <rect x="34" y="8" width="1" height="1" fill="#73000A"/>
  <rect x="35" y="8" width="1" height="1" fill="#8B0A1A"/>
  <rect x="36" y="8" width="1" height="1" fill="#4A0008"/>
  <rect x="37" y="8" width="1" height="1" fill="#3A0006"/>

  <!-- Head with face -->
  <rect x="25" y="9" width="1" height="1" fill="#3A0006"/>
  <rect x="26" y="9" width="1" height="1" fill="#4A0008"/>
  <rect x="27" y="9" width="1" height="1" fill="#73000A"/>
  <rect x="28" y="9" width="1" height="1" fill="#8B0A1A"/>
  <rect x="29" y="9" width="1" height="1" fill="#73000A"/>
  <rect x="30" y="9" width="1" height="1" fill="#8B0A1A"/>
  <rect x="31" y="9" width="1" height="1" fill="#73000A"/>
  <rect x="32" y="9" width="1" height="1" fill="#8B0A1A"/>
  <rect x="33" y="9" width="1" height="1" fill="#73000A"/>
  <rect x="34" y="9" width="1" height="1" fill="#8B0A1A"/>
  <rect x="35" y="9" width="1" height="1" fill="#73000A"/>
  <rect x="36" y="9" width="1" height="1" fill="#4A0008"/>
  <rect x="37" y="9" width="1" height="1" fill="#3A0006"/>

  <!-- Eye row -->
  <rect x="25" y="10" width="1" height="1" fill="#3A0006"/>
  <rect x="26" y="10" width="1" height="1" fill="#4A0008"/>
  <rect x="27" y="10" width="1" height="1" fill="#73000A"/>
  <rect x="28" y="10" width="1" height="1" fill="#8B0A1A"/>
  <rect x="29" y="10" width="1" height="1" fill="#FFFFFF"/>
  <rect x="30" y="10" width="1" height="1" fill="#FFFFFF"/>
  <rect x="31" y="10" width="1" height="1" fill="#EEEEEE"/>
  <rect x="32" y="10" width="1" height="1" fill="#000000"/>
  <rect x="33" y="10" width="1" height="1" fill="#000000"/>
  <rect x="34" y="10" width="1" height="1" fill="#73000A"/>
  <rect x="35" y="10" width="1" height="1" fill="#8B0A1A"/>
  <rect x="36" y="10" width="1" height="1" fill="#4A0008"/>
  <rect x="37" y="10" width="1" height="1" fill="#3A0006"/>

  <!-- Beak (detailed gold/yellow) -->
  <rect x="38" y="10" width="1" height="1" fill="#E6A800"/>
  <rect x="39" y="10" width="1" height="1" fill="#FFD700"/>
  <rect x="40" y="10" width="1" height="1" fill="#FFD700"/>
  <rect x="41" y="10" width="1" height="1" fill="#E6A800"/>
  <rect x="42" y="10" width="1" height="1" fill="#CC9400"/>
  <rect x="38" y="11" width="1" height="1" fill="#CC9400"/>
  <rect x="39" y="11" width="1" height="1" fill="#E6A800"/>
  <rect x="40" y="11" width="1" height="1" fill="#FFD700"/>
  <rect x="41" y="11" width="1" height="1" fill="#CC9400"/>
  <rect x="37" y="12" width="1" height="1" fill="#E6A800"/>
  <rect x="38" y="12" width="1" height="1" fill="#FFD700"/>
  <rect x="39" y="12" width="1" height="1" fill="#E6A800"/>
  <rect x="40" y="12" width="1" height="1" fill="#CC9400"/>

  <!-- Lower face -->
  <rect x="25" y="11" width="1" height="1" fill="#3A0006"/>
  <rect x="26" y="11" width="1" height="1" fill="#4A0008"/>
  <rect x="27" y="11" width="1" height="1" fill="#73000A"/>
  <rect x="28" y="11" width="1" height="1" fill="#8B0A1A"/>
  <rect x="29" y="11" width="1" height="1" fill="#73000A"/>
  <rect x="30" y="11" width="1" height="1" fill="#8B0A1A"/>
  <rect x="31" y="11" width="1" height="1" fill="#73000A"/>
  <rect x="32" y="11" width="1" height="1" fill="#8B0A1A"/>
  <rect x="33" y="11" width="1" height="1" fill="#73000A"/>
  <rect x="34" y="11" width="1" height="1" fill="#8B0A1A"/>
  <rect x="35" y="11" width="1" height="1" fill="#73000A"/>
  <rect x="36" y="11" width="1" height="1" fill="#8B0A1A"/>
  <rect x="37" y="11" width="1" height="1" fill="#4A0008"/>

  <!-- Head row -->
  <rect x="25" y="12" width="1" height="1" fill="#4A0008"/>
  <rect x="26" y="12" width="1" height="1" fill="#73000A"/>
  <rect x="27" y="12" width="1" height="1" fill="#8B0A1A"/>
  <rect x="28" y="12" width="1" height="1" fill="#73000A"/>
  <rect x="29" y="12" width="1" height="1" fill="#8B0A1A"/>
  <rect x="30" y="12" width="1" height="1" fill="#73000A"/>
  <rect x="31" y="12" width="1" height="1" fill="#8B0A1A"/>
  <rect x="32" y="12" width="1" height="1" fill="#73000A"/>
  <rect x="33" y="12" width="1" height="1" fill="#8B0A1A"/>
  <rect x="34" y="12" width="1" height="1" fill="#73000A"/>
  <rect x="35" y="12" width="1" height="1" fill="#8B0A1A"/>
  <rect x="36" y="12" width="1" height="1" fill="#73000A"/>

  <!-- Neck -->
  <rect x="26" y="13" width="1" height="1" fill="#4A0008"/>
  <rect x="27" y="13" width="1" height="1" fill="#73000A"/>
  <rect x="28" y="13" width="1" height="1" fill="#8B0A1A"/>
  <rect x="29" y="13" width="1" height="1" fill="#73000A"/>
  <rect x="30" y="13" width="1" height="1" fill="#8B0A1A"/>
  <rect x="31" y="13" width="1" height="1" fill="#73000A"/>
  <rect x="32" y="13" width="1" height="1" fill="#8B0A1A"/>
  <rect x="33" y="13" width="1" height="1" fill="#73000A"/>
  <rect x="34" y="13" width="1" height="1" fill="#8B0A1A"/>
  <rect x="35" y="13" width="1" height="1" fill="#4A0008"/>

  <!-- Raised arm/wing (right side) -->
  <rect x="42" y="12" width="1" height="1" fill="#3A0006"/>
  <rect x="43" y="12" width="1" height="1" fill="#4A0008"/>
  <rect x="44" y="12" width="1" height="1" fill="#3A0006"/>
  <rect x="42" y="13" width="1" height="1" fill="#4A0008"/>
  <rect x="43" y="13" width="1" height="1" fill="#73000A"/>
  <rect x="44" y="13" width="1" height="1" fill="#4A0008"/>
  <rect x="41" y="14" width="1" height="1" fill="#4A0008"/>
  <rect x="42" y="14" width="1" height="1" fill="#73000A"/>
  <rect x="43" y="14" width="1" height="1" fill="#8B0A1A"/>
  <rect x="44" y="14" width="1" height="1" fill="#73000A"/>
  <rect x="45" y="14" width="1" height="1" fill="#4A0008"/>
  <rect x="41" y="15" width="1" height="1" fill="#73000A"/>
  <rect x="42" y="15" width="1" height="1" fill="#8B0A1A"/>
  <rect x="43" y="15" width="1" height="1" fill="#73000A"/>
  <rect x="44" y="15" width="1" height="1" fill="#8B0A1A"/>
  <rect x="45" y="15" width="1" height="1" fill="#000000"/>
  <rect x="41" y="16" width="1" height="1" fill="#73000A"/>
  <rect x="42" y="16" width="1" height="1" fill="#73000A"/>
  <rect x="43" y="16" width="1" height="1" fill="#8B0A1A"/>
  <rect x="44" y="16" width="1" height="1" fill="#4A0008"/>

  <!-- Body/Jersey - multiple rows -->
  <rect x="17" y="14" width="1" height="1" fill="#3A0006"/>
  <rect x="18" y="14" width="1" height="1" fill="#4A0008"/>
  <rect x="19" y="14" width="1" height="1" fill="#73000A"/>
  <rect x="20" y="14" width="1" height="1" fill="#8B0A1A"/>
  <rect x="21" y="14" width="1" height="1" fill="#73000A"/>
  <rect x="22" y="14" width="1" height="1" fill="#8B0A1A"/>
  <rect x="23" y="14" width="1" height="1" fill="#73000A"/>
  <rect x="24" y="14" width="1" height="1" fill="#8B0A1A"/>
  <rect x="25" y="14" width="1" height="1" fill="#73000A"/>
  <rect x="26" y="14" width="1" height="1" fill="#8B0A1A"/>
  <rect x="27" y="14" width="1" height="1" fill="#73000A"/>
  <rect x="28" y="14" width="1" height="1" fill="#8B0A1A"/>
  <rect x="29" y="14" width="1" height="1" fill="#73000A"/>
  <rect x="30" y="14" width="1" height="1" fill="#8B0A1A"/>
  <rect x="31" y="14" width="1" height="1" fill="#73000A"/>
  <rect x="32" y="14" width="1" height="1" fill="#8B0A1A"/>
  <rect x="33" y="14" width="1" height="1" fill="#73000A"/>
  <rect x="34" y="14" width="1" height="1" fill="#8B0A1A"/>
  <rect x="35" y="14" width="1" height="1" fill="#73000A"/>
  <rect x="36" y="14" width="1" height="1" fill="#8B0A1A"/>
  <rect x="37" y="14" width="1" height="1" fill="#4A0008"/>
  <rect x="38" y="14" width="1" height="1" fill="#73000A"/>
  <rect x="39" y="14" width="1" height="1" fill="#8B0A1A"/>
  <rect x="40" y="14" width="1" height="1" fill="#4A0008"/>

  <!-- Left wing -->
  <rect x="12" y="16" width="1" height="1" fill="#3A0006"/>
  <rect x="13" y="16" width="1" height="1" fill="#4A0008"/>
  <rect x="14" y="16" width="1" height="1" fill="#73000A"/>
  <rect x="15" y="16" width="1" height="1" fill="#8B0A1A"/>
  <rect x="11" y="17" width="1" height="1" fill="#4A0008"/>
  <rect x="12" y="17" width="1" height="1" fill="#73000A"/>
  <rect x="13" y="17" width="1" height="1" fill="#8B0A1A"/>
  <rect x="14" y="17" width="1" height="1" fill="#73000A"/>
  <rect x="15" y="17" width="1" height="1" fill="#73000A"/>
  <rect x="10" y="18" width="1" height="1" fill="#4A0008"/>
  <rect x="11" y="18" width="1" height="1" fill="#73000A"/>
  <rect x="12" y="18" width="1" height="1" fill="#8B0A1A"/>
  <rect x="13" y="18" width="1" height="1" fill="#73000A"/>
  <rect x="14" y="18" width="1" height="1" fill="#8B0A1A"/>
  <rect x="9" y="19" width="1" height="1" fill="#000000"/>
  <rect x="10" y="19" width="1" height="1" fill="#4A0008"/>
  <rect x="11" y="19" width="1" height="1" fill="#73000A"/>
  <rect x="12" y="19" width="1" height="1" fill="#73000A"/>
  <rect x="13" y="19" width="1" height="1" fill="#8B0A1A"/>
  <rect x="10" y="20" width="1" height="1" fill="#000000"/>
  <rect x="11" y="20" width="1" height="1" fill="#4A0008"/>
  <rect x="12" y="20" width="1" height="1" fill="#73000A"/>

  <!-- Body rows with C letter -->
  <rect x="15" y="15" width="1" height="1" fill="#3A0006"/>
  <rect x="16" y="15" width="1" height="1" fill="#4A0008"/>
  <rect x="17" y="15" width="1" height="1" fill="#73000A"/>
  <rect x="18" y="15" width="1" height="1" fill="#8B0A1A"/>
  <rect x="19" y="15" width="1" height="1" fill="#73000A"/>
  <rect x="20" y="15" width="1" height="1" fill="#8B0A1A"/>
  <rect x="21" y="15" width="1" height="1" fill="#73000A"/>
  <rect x="22" y="15" width="1" height="1" fill="#8B0A1A"/>
  <rect x="23" y="15" width="1" height="1" fill="#73000A"/>
  <rect x="24" y="15" width="1" height="1" fill="#8B0A1A"/>
  <rect x="25" y="15" width="1" height="1" fill="#73000A"/>
  <rect x="26" y="15" width="1" height="1" fill="#8B0A1A"/>
  <rect x="27" y="15" width="1" height="1" fill="#73000A"/>
  <rect x="28" y="15" width="1" height="1" fill="#8B0A1A"/>
  <rect x="29" y="15" width="1" height="1" fill="#73000A"/>
  <rect x="30" y="15" width="1" height="1" fill="#8B0A1A"/>
  <rect x="31" y="15" width="1" height="1" fill="#73000A"/>
  <rect x="32" y="15" width="1" height="1" fill="#8B0A1A"/>
  <rect x="33" y="15" width="1" height="1" fill="#73000A"/>
  <rect x="34" y="15" width="1" height="1" fill="#8B0A1A"/>
  <rect x="35" y="15" width="1" height="1" fill="#73000A"/>
  <rect x="36" y="15" width="1" height="1" fill="#8B0A1A"/>
  <rect x="37" y="15" width="1" height="1" fill="#73000A"/>
  <rect x="38" y="15" width="1" height="1" fill="#4A0008"/>
  <rect x="39" y="15" width="1" height="1" fill="#3A0006"/>

  <!-- C letter area -->
  <rect x="15" y="16" width="1" height="1" fill="#4A0008"/>
  <rect x="16" y="16" width="1" height="1" fill="#73000A"/>
  <rect x="17" y="16" width="1" height="1" fill="#8B0A1A"/>
  <rect x="18" y="16" width="1" height="1" fill="#73000A"/>
  <rect x="19" y="16" width="1" height="1" fill="#73000A"/>
  <rect x="20" y="16" width="1" height="1" fill="#73000A"/>
  <rect x="21" y="16" width="1" height="1" fill="#FFFFFF"/>
  <rect x="22" y="16" width="1" height="1" fill="#FFFFFF"/>
  <rect x="23" y="16" width="1" height="1" fill="#FFFFFF"/>
  <rect x="24" y="16" width="1" height="1" fill="#FFFFFF"/>
  <rect x="25" y="16" width="1" height="1" fill="#73000A"/>
  <rect x="26" y="16" width="1" height="1" fill="#8B0A1A"/>
  <rect x="27" y="16" width="1" height="1" fill="#73000A"/>
  <rect x="28" y="16" width="1" height="1" fill="#8B0A1A"/>
  <rect x="29" y="16" width="1" height="1" fill="#73000A"/>
  <rect x="30" y="16" width="1" height="1" fill="#8B0A1A"/>
  <rect x="31" y="16" width="1" height="1" fill="#73000A"/>
  <rect x="32" y="16" width="1" height="1" fill="#8B0A1A"/>
  <rect x="33" y="16" width="1" height="1" fill="#73000A"/>
  <rect x="34" y="16" width="1" height="1" fill="#8B0A1A"/>
  <rect x="35" y="16" width="1" height="1" fill="#73000A"/>
  <rect x="36" y="16" width="1" height="1" fill="#8B0A1A"/>
  <rect x="37" y="16" width="1" height="1" fill="#4A0008"/>

  <rect x="15" y="17" width="1" height="1" fill="#4A0008"/>
  <rect x="16" y="17" width="1" height="1" fill="#73000A"/>
  <rect x="17" y="17" width="1" height="1" fill="#8B0A1A"/>
  <rect x="18" y="17" width="1" height="1" fill="#73000A"/>
  <rect x="19" y="17" width="1" height="1" fill="#8B0A1A"/>
  <rect x="20" y="17" width="1" height="1" fill="#FFFFFF"/>
  <rect x="21" y="17" width="1" height="1" fill="#FFFFFF"/>
  <rect x="22" y="17" width="1" height="1" fill="#73000A"/>
  <rect x="23" y="17" width="1" height="1" fill="#73000A"/>
  <rect x="24" y="17" width="1" height="1" fill="#73000A"/>
  <rect x="25" y="17" width="1" height="1" fill="#8B0A1A"/>
  <rect x="26" y="17" width="1" height="1" fill="#73000A"/>
  <rect x="27" y="17" width="1" height="1" fill="#8B0A1A"/>
  <rect x="28" y="17" width="1" height="1" fill="#73000A"/>
  <rect x="29" y="17" width="1" height="1" fill="#8B0A1A"/>
  <rect x="30" y="17" width="1" height="1" fill="#73000A"/>
  <rect x="31" y="17" width="1" height="1" fill="#8B0A1A"/>
  <rect x="32" y="17" width="1" height="1" fill="#73000A"/>
  <rect x="33" y="17" width="1" height="1" fill="#8B0A1A"/>
  <rect x="34" y="17" width="1" height="1" fill="#73000A"/>
  <rect x="35" y="17" width="1" height="1" fill="#8B0A1A"/>
  <rect x="36" y="17" width="1" height="1" fill="#4A0008"/>

  <rect x="15" y="18" width="1" height="1" fill="#4A0008"/>
  <rect x="16" y="18" width="1" height="1" fill="#73000A"/>
  <rect x="17" y="18" width="1" height="1" fill="#8B0A1A"/>
  <rect x="18" y="18" width="1" height="1" fill="#73000A"/>
  <rect x="19" y="18" width="1" height="1" fill="#FFFFFF"/>
  <rect x="20" y="18" width="1" height="1" fill="#FFFFFF"/>
  <rect x="21" y="18" width="1" height="1" fill="#73000A"/>
  <rect x="22" y="18" width="1" height="1" fill="#8B0A1A"/>
  <rect x="23" y="18" width="1" height="1" fill="#73000A"/>
  <rect x="24" y="18" width="1" height="1" fill="#8B0A1A"/>
  <rect x="25" y="18" width="1" height="1" fill="#73000A"/>
  <rect x="26" y="18" width="1" height="1" fill="#8B0A1A"/>
  <rect x="27" y="18" width="1" height="1" fill="#73000A"/>
  <rect x="28" y="18" width="1" height="1" fill="#8B0A1A"/>
  <rect x="29" y="18" width="1" height="1" fill="#73000A"/>
  <rect x="30" y="18" width="1" height="1" fill="#8B0A1A"/>
  <rect x="31" y="18" width="1" height="1" fill="#73000A"/>
  <rect x="32" y="18" width="1" height="1" fill="#8B0A1A"/>
  <rect x="33" y="18" width="1" height="1" fill="#73000A"/>
  <rect x="34" y="18" width="1" height="1" fill="#8B0A1A"/>
  <rect x="35" y="18" width="1" height="1" fill="#4A0008"/>

  <rect x="15" y="19" width="1" height="1" fill="#4A0008"/>
  <rect x="16" y="19" width="1" height="1" fill="#73000A"/>
  <rect x="17" y="19" width="1" height="1" fill="#8B0A1A"/>
  <rect x="18" y="19" width="1" height="1" fill="#73000A"/>
  <rect x="19" y="19" width="1" height="1" fill="#FFFFFF"/>
  <rect x="20" y="19" width="1" height="1" fill="#FFFFFF"/>
  <rect x="21" y="19" width="1" height="1" fill="#73000A"/>
  <rect x="22" y="19" width="1" height="1" fill="#8B0A1A"/>
  <rect x="23" y="19" width="1" height="1" fill="#73000A"/>
  <rect x="24" y="19" width="1" height="1" fill="#8B0A1A"/>
  <rect x="25" y="19" width="1" height="1" fill="#73000A"/>
  <rect x="26" y="19" width="1" height="1" fill="#8B0A1A"/>
  <rect x="27" y="19" width="1" height="1" fill="#73000A"/>
  <rect x="28" y="19" width="1" height="1" fill="#8B0A1A"/>
  <rect x="29" y="19" width="1" height="1" fill="#73000A"/>
  <rect x="30" y="19" width="1" height="1" fill="#8B0A1A"/>
  <rect x="31" y="19" width="1" height="1" fill="#73000A"/>
  <rect x="32" y="19" width="1" height="1" fill="#8B0A1A"/>
  <rect x="33" y="19" width="1" height="1" fill="#73000A"/>
  <rect x="34" y="19" width="1" height="1" fill="#4A0008"/>

  <rect x="16" y="20" width="1" height="1" fill="#4A0008"/>
  <rect x="17" y="20" width="1" height="1" fill="#73000A"/>
  <rect x="18" y="20" width="1" height="1" fill="#8B0A1A"/>
  <rect x="19" y="20" width="1" height="1" fill="#73000A"/>
  <rect x="20" y="20" width="1" height="1" fill="#FFFFFF"/>
  <rect x="21" y="20" width="1" height="1" fill="#FFFFFF"/>
  <rect x="22" y="20" width="1" height="1" fill="#73000A"/>
  <rect x="23" y="20" width="1" height="1" fill="#73000A"/>
  <rect x="24" y="20" width="1" height="1" fill="#73000A"/>
  <rect x="25" y="20" width="1" height="1" fill="#8B0A1A"/>
  <rect x="26" y="20" width="1" height="1" fill="#73000A"/>
  <rect x="27" y="20" width="1" height="1" fill="#8B0A1A"/>
  <rect x="28" y="20" width="1" height="1" fill="#73000A"/>
  <rect x="29" y="20" width="1" height="1" fill="#8B0A1A"/>
  <rect x="30" y="20" width="1" height="1" fill="#73000A"/>
  <rect x="31" y="20" width="1" height="1" fill="#8B0A1A"/>
  <rect x="32" y="20" width="1" height="1" fill="#73000A"/>
  <rect x="33" y="20" width="1" height="1" fill="#4A0008"/>

  <rect x="17" y="21" width="1" height="1" fill="#4A0008"/>
  <rect x="18" y="21" width="1" height="1" fill="#73000A"/>
  <rect x="19" y="21" width="1" height="1" fill="#8B0A1A"/>
  <rect x="20" y="21" width="1" height="1" fill="#73000A"/>
  <rect x="21" y="21" width="1" height="1" fill="#FFFFFF"/>
  <rect x="22" y="21" width="1" height="1" fill="#FFFFFF"/>
  <rect x="23" y="21" width="1" height="1" fill="#FFFFFF"/>
  <rect x="24" y="21" width="1" height="1" fill="#FFFFFF"/>
  <rect x="25" y="21" width="1" height="1" fill="#73000A"/>
  <rect x="26" y="21" width="1" height="1" fill="#8B0A1A"/>
  <rect x="27" y="21" width="1" height="1" fill="#73000A"/>
  <rect x="28" y="21" width="1" height="1" fill="#8B0A1A"/>
  <rect x="29" y="21" width="1" height="1" fill="#73000A"/>
  <rect x="30" y="21" width="1" height="1" fill="#8B0A1A"/>
  <rect x="31" y="21" width="1" height="1" fill="#73000A"/>
  <rect x="32" y="21" width="1" height="1" fill="#4A0008"/>

  <!-- Lower body -->
  <rect x="18" y="22" width="1" height="1" fill="#4A0008"/>
  <rect x="19" y="22" width="1" height="1" fill="#73000A"/>
  <rect x="20" y="22" width="1" height="1" fill="#8B0A1A"/>
  <rect x="21" y="22" width="1" height="1" fill="#73000A"/>
  <rect x="22" y="22" width="1" height="1" fill="#8B0A1A"/>
  <rect x="23" y="22" width="1" height="1" fill="#73000A"/>
  <rect x="24" y="22" width="1" height="1" fill="#8B0A1A"/>
  <rect x="25" y="22" width="1" height="1" fill="#73000A"/>
  <rect x="26" y="22" width="1" height="1" fill="#8B0A1A"/>
  <rect x="27" y="22" width="1" height="1" fill="#73000A"/>
  <rect x="28" y="22" width="1" height="1" fill="#8B0A1A"/>
  <rect x="29" y="22" width="1" height="1" fill="#73000A"/>
  <rect x="30" y="22" width="1" height="1" fill="#4A0008"/>

  <rect x="19" y="23" width="1" height="1" fill="#4A0008"/>
  <rect x="20" y="23" width="1" height="1" fill="#73000A"/>
  <rect x="21" y="23" width="1" height="1" fill="#8B0A1A"/>
  <rect x="22" y="23" width="1" height="1" fill="#73000A"/>
  <rect x="23" y="23" width="1" height="1" fill="#8B0A1A"/>
  <rect x="24" y="23" width="1" height="1" fill="#73000A"/>
  <rect x="25" y="23" width="1" height="1" fill="#8B0A1A"/>
  <rect x="26" y="23" width="1" height="1" fill="#73000A"/>
  <rect x="27" y="23" width="1" height="1" fill="#8B0A1A"/>
  <rect x="28" y="23" width="1" height="1" fill="#73000A"/>
  <rect x="29" y="23" width="1" height="1" fill="#4A0008"/>

  <!-- Legs -->
  <rect x="21" y="24" width="1" height="1" fill="#73000A"/>
  <rect x="22" y="24" width="1" height="1" fill="#8B0A1A"/>
  <rect x="23" y="24" width="1" height="1" fill="#73000A"/>
  <rect x="26" y="24" width="1" height="1" fill="#73000A"/>
  <rect x="27" y="24" width="1" height="1" fill="#8B0A1A"/>
  <rect x="28" y="24" width="1" height="1" fill="#73000A"/>

  <rect x="21" y="25" width="1" height="1" fill="#8B0A1A"/>
  <rect x="22" y="25" width="1" height="1" fill="#73000A"/>
  <rect x="23" y="25" width="1" height="1" fill="#8B0A1A"/>
  <rect x="26" y="25" width="1" height="1" fill="#8B0A1A"/>
  <rect x="27" y="25" width="1" height="1" fill="#73000A"/>
  <rect x="28" y="25" width="1" height="1" fill="#8B0A1A"/>

  <!-- Feet -->
  <rect x="19" y="26" width="1" height="1" fill="#000000"/>
  <rect x="20" y="26" width="1" height="1" fill="#000000"/>
  <rect x="21" y="26" width="1" height="1" fill="#000000"/>
  <rect x="22" y="26" width="1" height="1" fill="#000000"/>
  <rect x="23" y="26" width="1" height="1" fill="#000000"/>
  <rect x="24" y="26" width="1" height="1" fill="#000000"/>
  <rect x="25" y="26" width="1" height="1" fill="#000000"/>
  <rect x="26" y="26" width="1" height="1" fill="#000000"/>
  <rect x="27" y="26" width="1" height="1" fill="#000000"/>
  <rect x="28" y="26" width="1" height="1" fill="#000000"/>
  <rect x="29" y="26" width="1" height="1" fill="#000000"/>
  <rect x="30" y="26" width="1" height="1" fill="#000000"/>
</svg>